<?xml version="1.0" standalone="no"?>
<!DOCTYPE svg PUBLIC "-//W3C//DTD SVG 20010904//EN"
 "http://www.w3.org/TR/2001/REC-SVG-20010904/DTD/svg10.dtd">
<svg version="1.0" xmlns="http://www.w3.org/2000/svg"
 width="256.000000pt" height="256.000000pt" viewBox="0 0 256.000000 256.000000"
 preserveAspectRatio="xMidYMid meet">

<g transform="translate(0.000000,256.000000) scale(0.100000,-0.100000)"
fill="#000000" stroke="none">
<path d="M1093 2336 c-225 -43 -407 -139 -568 -301 -222 -221 -325 -486 -312
-800 8 -203 61 -369 168 -535 148 -228 368 -385 649 -463 61 -17 106 -21 245
-21 148 -1 182 2 259 23 396 104 677 386 789 791 30 109 30 391 0 500 -58 210
-150 370 -292 510 -143 141 -298 229 -491 280 -109 28 -339 36 -447 16z m385
-231 c146 -35 275 -107 390 -219 174 -168 256 -362 256 -606 0 -244 -82 -438
-256 -606 -114 -111 -226 -175 -375 -214 -297 -78 -608 11 -824 236 -160 166
-233 350 -233 584 0 237 74 419 238 588 134 139 293 222 484 252 74 12 240 4
320 -15z"/>
<path d="M1225 1599 c-44 -24 -365 -354 -376 -386 -24 -73 29 -143 109 -143
44 0 48 3 156 108 61 59 123 118 139 132 l27 24 133 -132 c132 -130 134 -132
179 -132 76 0 129 65 112 136 -8 32 -330 366 -376 390 -32 17 -75 18 -103 3z"/>
</g>
</svg>
