<?xml version="1.0" standalone="no"?>
<!DOCTYPE svg PUBLIC "-//W3C//DTD SVG 20010904//EN"
 "http://www.w3.org/TR/2001/REC-SVG-20010904/DTD/svg10.dtd">
<svg version="1.0" xmlns="http://www.w3.org/2000/svg"
 width="256.000000pt" height="256.000000pt" viewBox="0 0 256.000000 256.000000"
 preserveAspectRatio="xMidYMid meet">

<g transform="translate(0.000000,256.000000) scale(0.100000,-0.100000)"
fill="#000000" stroke="none">
<path d="M935 2239 c-20 -6 -106 -85 -267 -247 l-238 -238 0 -49 0 -48 228
-229 c125 -126 239 -236 254 -244 58 -30 130 -6 154 53 27 63 13 86 -130 231
l-131 133 415 -3 415 -3 65 -31 c83 -39 145 -101 184 -184 27 -58 31 -75 31
-155 0 -82 -3 -97 -33 -157 -41 -83 -120 -158 -200 -189 -52 -21 -79 -23 -310
-28 l-254 -6 -24 -28 c-41 -48 -29 -128 26 -160 24 -15 61 -17 252 -17 123 0
251 5 284 11 32 5 100 30 150 54 238 115 368 382 313 647 -42 207 -225 394
-430 443 -52 12 -144 15 -473 15 l-409 0 130 133 c141 143 155 168 130 228
-23 57 -75 83 -132 68z"/>
</g>
</svg>
